# xmcd CD database file
#
# Track frame offsets:
#	150
#	18155
#	40973
#	65637
#	72782
#	102775
#	126583
#	149643
#	158021
#	173267
#	198659
#	223581
#
# Disc length: 3324 seconds
#
# Revision: 0
# Processed by: cddbd v1.5PL3 Copyright (c) Steve Scherf et al.
# Submitted via: CDex 1.50Beta7
#
DISCID=ad0cfa0c
DTITLE=Silverfish Tribe Record - FutureGPX2002
DYEAR=2002
DGENRE=Techno
TTITLE0=toys - Keisuke Hattori
TTITLE1=balloony(erv remix) - RANDO:
TTITLE2=bullet time - EarBreaker
TTITLE3=limitation - k-shi
TTITLE4=jetstream in motorgame - RANDO:
TTITLE5=a root - Keisuke Hattori
TTITLE6=人間の盾 - RANDO:
TTITLE7=escape - k-shi
TTITLE8=Nina - Keisuke Hattori
TTITLE9=babystand - RANDO:
TTITLE10=覇王別姫(Queen Of Opium) - RANDO:
TTITLE11=Negaposi mix - EarBreaker and Glide-DC
EXTD=YEAR: 2002
EXTT0=
EXTT1=
EXTT2=
EXTT3=
EXTT4=
EXTT5=
EXTT6=
EXTT7=
EXTT8=
EXTT9=
EXTT10=
EXTT11=
PLAYORDER=
